<svg viewBox="0 0 32 32" xmlns="http://www.w3.org/2000/svg"><g id="Layer_2" data-name="Layer 2"><path d="m2 10v-5a3 3 0 0 1 3-3h5a1 1 0 0 1 0 2h-5a1 1 0 0 0 -1 1v5a1 1 0 0 1 -2 0zm8 18h-5a1 1 0 0 1 -1-1v-5a1 1 0 0 0 -2 0v5a3 3 0 0 0 3 3h5a1 1 0 0 0 0-2zm19-7a1 1 0 0 0 -1 1v5a1 1 0 0 1 -1 1h-5a1 1 0 0 0 0 2h5a3 3 0 0 0 3-3v-5a1 1 0 0 0 -1-1zm-2-19h-5a1 1 0 0 0 0 2h5a1 1 0 0 1 1 1v5a1 1 0 0 0 2 0v-5a3 3 0 0 0 -3-3zm-13 6v4a2 2 0 0 1 -2 2h-4a2 2 0 0 1 -2-2v-4a2 2 0 0 1 2-2h4a2 2 0 0 1 2 2zm-2 4v-4h-4v4zm2 8v4a2 2 0 0 1 -2 2h-4a2 2 0 0 1 -2-2v-4a2 2 0 0 1 2-2h4a2 2 0 0 1 2 2zm-2 4v-4h-4v4zm6-12v-4a2 2 0 0 1 2-2h4a2 2 0 0 1 2 2v4a2 2 0 0 1 -2 2h-4a2 2 0 0 1 -2-2zm2 0h4v-4h-4zm2 8a1 1 0 0 0 0-2h-2a2 2 0 0 0 -2 2v2a1 1 0 0 0 2 0v-2zm1 6a1 1 0 0 0 0-2h-2a1 1 0 0 0 0 2zm1-6v2a1 1 0 0 0 2 0v-2a1 1 0 0 0 -2 0z"/></g></svg>