<svg id="Ebene_1" enable-background="new 0 0 100 100" height="100" viewBox="0 0 100 100" width="100" xmlns="http://www.w3.org/2000/svg"><g><path d="m89 24.75c0-4.136-3.364-7.5-7.5-7.5h-63c-4.136 0-7.5 3.364-7.5 7.5v.5 50c0 4.136 3.364 7.5 7.5 7.5h63c4.136 0 7.5-3.364 7.5-7.5m-3-8h-23.75c-2.481 0-4.5-2.019-4.5-4.5v-6.75c0-2.481 2.019-4.5 4.5-4.5h23.75zm0-18.75h-23.75c-4.136 0-7.5 3.364-7.5 7.5v6.75c0 4.136 3.364 7.5 7.5 7.5h23.75v5c0 2.481-2.019 4.5-4.5 4.5h-63c-2.481 0-4.5-2.019-4.5-4.5v-44.003c1.254.943 2.813 1.503 4.5 1.503h63c2.481 0 4.5 2.019 4.5 4.5zm0-17.236c-1.255-.946-2.811-1.514-4.5-1.514h-63c-2.481 0-4.5-2.019-4.5-4.5v-.5c0-2.481 2.019-4.5 4.5-4.5h63c2.481 0 4.5 2.019 4.5 4.5z"/><path d="m65.625 64c2.55 0 4.625-2.075 4.625-4.625s-2.075-4.625-4.625-4.625-4.625 2.075-4.625 4.625 2.075 4.625 4.625 4.625zm0-6.25c.896 0 1.625.729 1.625 1.625s-.729 1.625-1.625 1.625-1.625-.729-1.625-1.625.729-1.625 1.625-1.625z"/></g></svg>