<svg xmlns="http://www.w3.org/2000/svg" version="1.1" xmlns:xlink="http://www.w3.org/1999/xlink" width="512" height="512" x="0" y="0" viewBox="0 0 16 16" style="enable-background:new 0 0 512 512" xml:space="preserve" class=""><g transform="matrix(1,0,0,1,0,0)"><path d="M14.064 9.499a.499.499 0 0 0-.616.347l-.217.78a.514.514 0 0 1-.481.374H5.3a.499.499 0 0 1-.482-.389L3.566 5H5.5a.5.5 0 0 0 0-1H3.343l-.184-.827A1.502 1.502 0 0 0 1.7 2H.5a.5.5 0 0 0 0 1h1.2c.23 0 .433.163.482.389l1.66 7.44A1.505 1.505 0 0 0 5.3 12h7.45c.654 0 1.246-.446 1.441-1.096l.22-.79a.497.497 0 0 0-.347-.615zM6.5 13c-.827 0-1.5.673-1.5 1.5S5.673 16 6.5 16 8 15.327 8 14.5 7.327 13 6.5 13zm0 2a.5.5 0 1 1 0-1 .5.5 0 0 1 0 1zM11.5 13c-.827 0-1.5.673-1.5 1.5s.673 1.5 1.5 1.5 1.5-.673 1.5-1.5-.673-1.5-1.5-1.5zm0 2a.5.5 0 1 1 0-1 .5.5 0 0 1 0 1z" fill="#1e293b" opacity="1" data-original="#000000" class=""></path><path d="M11.5 0C9.019 0 7 2.019 7 4.5S9.019 9 11.5 9 16 6.981 16 4.5 13.981 0 11.5 0zm0 8C9.57 8 8 6.43 8 4.5S9.57 1 11.5 1 15 2.57 15 4.5 13.43 8 11.5 8z" fill="#1e293b" opacity="1" data-original="#000000" class=""></path><path d="M13.5 4H12V2.5a.5.5 0 0 0-1 0V4H9.5a.5.5 0 0 0 0 1H11v1.5a.5.5 0 0 0 1 0V5h1.5a.5.5 0 0 0 0-1z" fill="#1e293b" opacity="1" data-original="#000000" class=""></path></g></svg>